<svg xmlns="http://www.w3.org/2000/svg" viewBox="0 0 2000 2001">
  <path fill="#150a03" fill-rule="evenodd" d="m1360.14 328.97q8.27 0.4 16.5 1.21 8.23 0.81 16.41 2.03 8.19 1.21 16.31 2.83 8.11 1.61 16.13 3.62 8.03 2.01 15.95 4.41 7.91 2.41 15.71 5.19 7.78 2.78 15.42 5.95 7.65 3.17 15.12 6.71 7.49 3.53 14.78 7.43 7.3 3.91 14.39 8.16 7.1 4.25 13.98 8.85 6.87 4.59 13.52 9.52 6.65 4.92 13.04 10.18 6.39 5.25 12.53 10.8 6.13 5.56 11.98 11.41 5.85 5.85 11.4 11.98 5.56 6.13 10.81 12.52 5.25 6.4 10.17 13.04 4.94 6.65 9.53 13.52 4.59 6.89 8.85 13.99 4.25 7.09 8.16 14.38 3.89 7.3 7.43 14.78 3.53 7.47 6.71 15.13 3.16 7.63 5.94 15.42 2.79 7.79 5.19 15.71 2.41 7.92 4.42 15.95 2.01 8.02 3.62 16.13 1.62 8.12 2.82 16.3 1.23 8.18 2.03 16.42 0.82 8.23 1.22 16.5 0.41 8.26 0.41 16.53v686.84q0 8.28-0.41 16.54-0.4 8.26-1.22 16.49-0.8 8.24-2.03 16.42-1.2 8.18-2.82 16.3-1.61 8.11-3.62 16.13-2.01 8.03-4.42 15.95-2.4 7.91-5.19 15.71-2.78 7.79-5.94 15.43-3.18 7.64-6.71 15.12-3.54 7.48-7.43 14.78-3.91 7.29-8.16 14.39-4.26 7.09-8.85 13.98-4.59 6.87-9.53 13.52-4.92 6.64-10.17 13.04-5.25 6.39-10.81 12.53-5.55 6.12-11.4 11.97-5.85 5.85-11.98 11.41-6.14 5.55-12.53 10.81-6.39 5.25-13.04 10.17-6.65 4.93-13.52 9.52-6.88 4.6-13.98 8.85-7.09 4.26-14.39 8.15-7.29 3.91-14.78 7.44-7.47 3.54-15.12 6.7-7.64 3.18-15.42 5.96-7.8 2.79-15.71 5.19-7.92 2.4-15.95 4.41-8.02 2.01-16.13 3.62-8.12 1.62-16.31 2.83-8.18 1.22-16.41 2.03-8.23 0.81-16.5 1.21-8.26 0.41-16.53 0.41h-643.87c72.03-55.76 138.63-106.69 200.26-153.8 355.91-272.03 534.54-408.54 595.36-590.95 107.76-323.28-56.17-479.64-63.39-486.34-17.14-15.88-43.81-15.4-60.34 1.13l-293.6 291.54h-425.03v85h339.43l-84.59 84h-254.84v85h169.24l-84.59 84h-84.65v84.06l-308.43 306.27q-2.7-6.63-5.11-13.38-2.79-7.8-5.19-15.71-2.41-7.92-4.41-15.95-2.02-8.02-3.63-16.13-1.62-8.12-2.82-16.3-1.23-8.18-2.03-16.42-0.82-8.23-1.22-16.49-0.41-8.26-0.4-16.54v-686.84q-0.01-8.27 0.4-16.53 0.4-8.27 1.22-16.5 0.8-8.24 2.03-16.42 1.2-8.18 2.82-16.3 1.61-8.11 3.63-16.13 2-8.03 4.41-15.95 2.4-7.92 5.19-15.71 2.78-7.79 5.95-15.42 3.17-7.66 6.7-15.13 3.54-7.48 7.44-14.78 3.9-7.29 8.15-14.38 4.26-7.1 8.86-13.99 4.58-6.87 9.52-13.52 4.93-6.64 10.17-13.04 5.25-6.39 10.81-12.52 5.55-6.13 11.4-11.98 5.85-5.85 11.98-11.41 6.14-5.55 12.53-10.8 6.39-5.26 13.04-10.18 6.65-4.93 13.52-9.52 6.88-4.6 13.98-8.85 7.09-4.25 14.39-8.16 7.29-3.9 14.78-7.43 7.47-3.54 15.12-6.71 7.64-3.17 15.42-5.95 7.81-2.78 15.71-5.19 7.92-2.4 15.95-4.41 8.02-2.01 16.13-3.62 8.12-1.62 16.31-2.83 8.18-1.22 16.41-2.03 8.23-0.81 16.5-1.21 8.26-0.41 16.53-0.41h686.85q8.27 0 16.53 0.41z"/>
</svg>
