<svg xmlns="http://www.w3.org/2000/svg" viewBox="0 0 2000 2001">
  <path fill="#f6f1eb" fill-rule="evenodd" d="m656.39 328.56h686.85q8.27 0 16.53 0.41 8.27 0.4 16.5 1.21 8.23 0.81 16.41 2.03 8.19 1.21 16.31 2.83 8.11 1.61 16.13 3.62 8.03 2.01 15.95 4.41 7.9 2.41 15.71 5.19 7.78 2.78 15.42 5.95 7.65 3.17 15.12 6.71 7.49 3.53 14.78 7.43 7.3 3.91 14.39 8.16 7.1 4.25 13.98 8.85 6.87 4.59 13.52 9.52 6.65 4.92 13.04 10.18 6.39 5.25 12.53 10.8 6.13 5.56 11.98 11.41 5.85 5.85 11.4 11.98 5.56 6.13 10.81 12.52 5.24 6.4 10.17 13.04 4.94 6.65 9.53 13.52 4.59 6.89 8.85 13.99 4.25 7.09 8.15 14.38 3.9 7.3 7.44 14.78 3.53 7.47 6.7 15.13 3.17 7.64 5.95 15.42 2.79 7.79 5.19 15.71 2.41 7.92 4.41 15.95 2.02 8.02 3.63 16.13 1.62 8.12 2.82 16.3 1.23 8.18 2.03 16.42 0.82 8.23 1.22 16.5 0.41 8.26 0.4 16.53v686.84q0.01 8.28-0.4 16.54-0.4 8.26-1.22 16.49-0.8 8.24-2.03 16.42-1.2 8.18-2.82 16.3-1.51 7.58-3.37 15.09l-1094.59-1094.91q7.38-1.82 14.83-3.3 8.12-1.62 16.31-2.83 8.18-1.22 16.41-2.03 8.23-0.81 16.5-1.21 8.26-0.41 16.53-0.41zm768.73 1350.76q-8.02 2.01-16.13 3.62-8.12 1.62-16.31 2.83-8.18 1.22-16.41 2.03-8.23 0.81-16.5 1.21-8.26 0.41-16.53 0.41h-686.85q-8.27 0-16.53-0.41-8.27-0.4-16.5-1.21-8.23-0.81-16.41-2.03-8.19-1.21-16.31-2.83-8.11-1.61-16.13-3.62-8.03-2.01-15.95-4.41-7.91-2.4-15.71-5.19-7.78-2.78-15.42-5.96-7.65-3.16-15.12-6.7-7.49-3.53-14.78-7.44-7.3-3.89-14.39-8.15-7.1-4.25-13.98-8.85-6.87-4.59-13.52-9.52-6.65-4.92-13.04-10.17-6.39-5.26-12.53-10.81-6.13-5.56-11.98-11.41-5.85-5.85-11.4-11.97-5.56-6.14-10.81-12.53-5.25-6.4-10.17-13.04-4.94-6.65-9.53-13.52-4.59-6.89-8.85-13.98-4.25-7.1-8.16-14.39-3.89-7.3-7.43-14.78-3.53-7.48-6.71-15.12-3.16-7.64-5.94-15.43-2.79-7.8-5.19-15.71-2.41-7.92-4.41-15.95-2.02-8.02-3.63-16.13-1.62-8.12-2.82-16.3-1.23-8.18-2.03-16.42-0.82-8.23-1.22-16.49-0.41-8.26-0.41-16.54v-580.73c97 115.87 256.42 237.7 496.52 421.21 166.28 127.08 368.7 282.02 616.46 484.53q-3.61 0.99-7.24 1.9z"/>
</svg>